<svg xmlns="http://www.w3.org/2000/svg" version="1.1" xmlns:xlink="http://www.w3.org/1999/xlink" width="512" height="512" x="0" y="0" viewBox="0 0 512 512" style="enable-background:new 0 0 512 512" xml:space="preserve" class=""><g><path d="M429.654 52.204h-85.263c-3.622-8.265-11.877-14.057-21.464-14.057h-17.78C300.458 16.104 280.548 0 255.999 0c-24.55 0-44.461 16.104-49.149 38.147h-17.779c-9.585 0-17.841 5.792-21.463 14.057H82.345c-20.495 0-37.168 16.496-37.168 36.774v386.247C45.176 495.503 61.85 512 82.345 512h347.31c20.495 0 37.169-16.497 37.169-36.775V88.978c0-20.278-16.675-36.774-37.17-36.774zm-243.928 9.369a3.35 3.35 0 0 1 3.345-3.347h36.811v-10.04c0-16.024 12.948-28.107 30.118-28.107 17.169 0 30.116 12.083 30.116 28.107v10.039h36.813a3.351 3.351 0 0 1 3.347 3.347V92.36h-140.55V61.573zm160.627 50.866h60.235v333.686H105.412V112.439H346.353zm100.392 362.786c0 9.207-7.667 16.696-17.09 16.696H82.345c-9.424 0-17.09-7.49-17.09-16.696V88.978c0-9.206 7.666-16.695 17.09-16.695h83.302v20.078H95.373c-5.545 0-10.039 4.495-10.039 10.039v353.765c0 5.545 4.495 10.039 10.039 10.039h321.255c5.545 0 10.039-4.495 10.039-10.039V102.4c0-5.545-4.495-10.039-10.039-10.039h-70.275V72.282h83.302c9.423 0 17.09 7.489 17.09 16.695v386.248z" fill="#ffffff" opacity="1" data-original="#000000" class=""></path><path d="M256 34.133c-8.857 0-16.063 7.206-16.063 16.063S247.142 66.259 256 66.259c8.857 0 16.063-7.206 16.063-16.063S264.857 34.133 256 34.133zm0 20.079a4.02 4.02 0 0 1-4.016-4.016A4.02 4.02 0 0 1 256 46.18a4.02 4.02 0 0 1 4.016 4.016A4.02 4.02 0 0 1 256 54.212zM184.722 349.365h-22.086c-5.545 0-10.039 4.495-10.039 10.039s4.495 10.039 10.039 10.039h22.086c5.545 0 10.039-4.495 10.039-10.039s-4.495-10.039-10.039-10.039zM349.365 349.365H216.847c-5.545 0-10.039 4.495-10.039 10.039s4.495 10.039 10.039 10.039h132.518c5.545 0 10.039-4.495 10.039-10.039s-4.495-10.039-10.039-10.039zM184.722 397.553h-22.086c-5.545 0-10.039 4.495-10.039 10.039s4.495 10.039 10.039 10.039h22.086c5.545 0 10.039-4.495 10.039-10.039s-4.495-10.039-10.039-10.039zM349.365 397.553H216.847c-5.545 0-10.039 4.495-10.039 10.039s4.495 10.039 10.039 10.039h132.518c5.545 0 10.039-4.495 10.039-10.039s-4.495-10.039-10.039-10.039zM256 144.738c-46.5 0-84.329 37.83-84.329 84.329s37.829 84.33 84.329 84.33 84.329-37.83 84.329-84.329-37.829-84.33-84.329-84.33zm0 148.581c-35.428 0-64.251-28.823-64.251-64.251 0-35.427 28.823-64.251 64.251-64.251 35.428 0 64.251 28.823 64.251 64.251S291.428 293.319 256 293.319z" fill="#ffffff" opacity="1" data-original="#000000" class=""></path><path d="M300.491 200.826c-3.92-3.92-10.277-3.92-14.197.001L245.54 241.58l-10.084-10.084c-3.92-3.92-10.277-3.92-14.198 0-3.92 3.92-3.92 10.277 0 14.198l17.184 17.183a9.997 9.997 0 0 0 7.099 2.94 10 10 0 0 0 7.099-2.94l.005-.005 47.847-47.849c3.919-3.92 3.919-10.277-.001-14.197z" fill="#ffffff" opacity="1" data-original="#000000" class=""></path></g></svg>